<svg width="32" height="32" viewBox="0 0 32 32" fill="none" xmlns="http://www.w3.org/2000/svg">
<path d="M3.66683 6.6665C2.39019 6.6665 1.3335 7.7232 1.3335 8.99984V14.9998V22.9998C1.3335 24.2765 2.39019 25.3332 3.66683 25.3332H11.0002C14.1179 25.3332 16.6668 22.7843 16.6668 19.6665C16.6668 17.6955 15.5867 16.0367 14.0496 15.0207C15.2012 14.1685 16.0002 12.8665 16.0002 11.3332C16.0002 8.76757 13.8991 6.6665 11.3335 6.6665H3.66683ZM22.3413 7.99984C21.7893 7.99984 21.3413 8.44784 21.3413 8.99984C21.3413 9.55184 21.7893 9.99984 22.3413 9.99984H27.6746C28.2273 9.99984 28.6746 9.55184 28.6746 8.99984C28.6746 8.44784 28.2266 7.99984 27.6746 7.99984H22.3413ZM3.66683 8.6665H11.3335C12.8186 8.6665 14.0002 9.84811 14.0002 11.3332C14.0002 12.8182 12.8186 13.9998 11.3335 13.9998H11.0002H3.3335V8.99984C3.3335 8.80314 3.47013 8.6665 3.66683 8.6665ZM24.6642 11.3332C21.1064 11.3332 18.2984 14.2883 18.0796 17.9113C18.0177 18.0438 17.9856 18.1882 17.9856 18.3345C17.9856 18.4807 18.0177 18.6252 18.0796 18.7576C18.2997 22.3795 21.1078 25.3332 24.6642 25.3332C26.9872 25.3332 29.2816 24.1509 30.5119 22.203C30.5852 22.092 30.6356 21.9675 30.6602 21.8368C30.6848 21.7061 30.6831 21.5718 30.6552 21.4418C30.6273 21.3117 30.5737 21.1886 30.4976 21.0795C30.4215 20.9704 30.3244 20.8776 30.212 20.8065C30.0996 20.7354 29.9742 20.6875 29.843 20.6654C29.7118 20.6434 29.5776 20.6478 29.4481 20.6783C29.3187 20.7088 29.1966 20.7648 29.0891 20.843C28.9815 20.9213 28.8906 21.0202 28.8218 21.134C28.02 22.4034 26.2706 23.3332 24.6642 23.3332C22.4327 23.3332 20.6317 21.6223 20.1864 19.3332H29.6564C30.6377 19.3332 31.4315 18.4546 31.3166 17.4725V17.4712C30.9146 14.0345 28.0843 11.3332 24.6642 11.3332ZM24.6642 13.3332C26.901 13.3332 28.7731 15.0434 29.2189 17.3332H20.1864C20.6315 15.0439 22.432 13.3332 24.6642 13.3332ZM3.3335 15.9998H11.0002C13.0371 15.9998 14.6668 17.6296 14.6668 19.6665C14.6668 21.7034 13.0371 23.3332 11.0002 23.3332H3.66683C3.47013 23.3332 3.3335 23.1965 3.3335 22.9998V15.9998Z" fill="#E9E3DE"/>
</svg>
