<svg width="32" height="32" viewBox="0 0 32 32" fill="none" xmlns="http://www.w3.org/2000/svg">
<path d="M15.9998 2.6665C8.64788 2.6665 2.6665 8.64789 2.6665 15.9998C2.6665 23.3518 8.64788 29.3332 15.9998 29.3332C23.3518 29.3332 29.3332 23.3518 29.3332 15.9998C29.3332 8.64789 23.3518 2.6665 15.9998 2.6665ZM15.9998 4.6665C18.7614 4.6665 21.2862 5.65073 23.2498 7.28499C21.4148 8.90057 19.3163 10.2153 17.0532 11.2238C15.8742 9.07956 14.5943 7.00035 13.1574 5.0389C14.0669 4.80457 15.016 4.6665 15.9998 4.6665ZM11.1899 5.74463C12.6649 7.69499 13.9663 9.77601 15.1639 11.9243C12.7001 12.7803 10.0916 13.3332 7.33317 13.3332C6.55474 13.3332 5.7874 13.2813 5.02588 13.2069C5.86444 9.89001 8.1538 7.1675 11.1899 5.74463ZM24.6678 8.69775C26.3073 10.6431 27.3022 13.1477 27.328 15.8918C25.8883 15.5306 24.3838 15.3332 22.8332 15.3332C21.6144 15.3332 20.437 15.4905 19.2837 15.716C18.882 14.7854 18.442 13.881 17.9894 12.979C20.429 11.8758 22.6935 10.4507 24.6678 8.69775ZM16.1183 13.7134C16.5407 14.5476 16.9666 15.3757 17.3436 16.2355C13.302 17.4996 9.83268 20.0657 7.50504 23.492C5.74341 21.4953 4.6665 18.8794 4.6665 15.9998C4.6665 15.7236 4.68885 15.4534 4.70817 15.1821C5.5717 15.2707 6.44374 15.3332 7.33317 15.3332C10.4288 15.3332 13.3632 14.7087 16.1183 13.7134ZM22.8332 17.3332C24.3324 17.3332 25.7787 17.5461 27.1587 17.9217C26.6355 20.9927 24.8906 23.6382 22.4295 25.3345C21.8367 22.7098 21.0069 20.1792 20.0571 17.7082C20.9733 17.5505 21.8712 17.3332 22.8332 17.3332ZM18.061 18.0832C19.1083 20.7503 20.004 23.4941 20.604 26.354C19.197 26.9789 17.6417 27.3332 15.9998 27.3332C13.3403 27.3332 10.9046 26.4149 8.9738 24.8879C11.0724 21.6514 14.287 19.2273 18.061 18.0832Z" fill="#E9E3DE"/>
</svg>
